<mxfile host="app.diagrams.net" modified="2023-05-05T05:53:42.410Z" agent="Mozilla/5.0 (Windows NT 10.0; Win64; x64) AppleWebKit/537.36 (KHTML, like Gecko) Chrome/112.0.0.0 Safari/537.36 Edg/112.0.1722.68" version="21.2.6" etag="J471ptaTS76kWJ9m5YFG" type="github">
  <diagram name="Page-1" id="13S5P-z9M1Gz_f77IQxL">
    <mxGraphModel>
      <root>
        <mxCell id="0" />
        <mxCell id="1" parent="0" />
      </root>
    </mxGraphModel>
  </diagram>
</mxfile>
